<?xml version="1.0" encoding="UTF-8"?>
<!DOCTYPE svg PUBLIC "-//W3C//DTD SVG 1.1//EN" "http://www.w3.org/Graphics/SVG/1.1/DTD/svg11.dtd">
<!-- Creator: CorelDRAW X7 -->
<svg xmlns="http://www.w3.org/2000/svg" xml:space="preserve" width="225px" height="46px" version="1.1" style="shape-rendering:geometricPrecision; text-rendering:geometricPrecision; image-rendering:optimizeQuality; fill-rule:evenodd; clip-rule:evenodd"
viewBox="0 0 5763096 1178494"
 xmlns:xlink="http://www.w3.org/1999/xlink">
 <defs>
  <style type="text/css">
   <![CDATA[
    .fil0 {fill:#77777;fill-rule:nonzero}
   ]]>
  </style>
 </defs>
 <g id="Layer_x0020_1">
  <polygon class="fil0" points="263768,237410 263768,523698 650141,523698 650141,726164 263768,726164 263768,1166071 0,1166071 0,35699 727736,35699 727736,237410 "/>
  <path id="1" class="fil0" d="M969589 485671c24817,-43437 53534,-77595 85848,-102412 32343,-24817 69312,-37240 111208,-37240 36213,0 65685,8524 88447,25603l-15507 176893c-2600,11366 -6741,19134 -12666,23276 -5955,4141 -14237,6196 -24575,6196 -4141,0 -9582,-242 -16293,-755 -6741,-545 -13723,-1300 -20948,-2086 -7254,-786 -14479,-1542 -21975,-2328 -7497,-786 -14479,-1027 -20706,-1027 -35155,0 -63086,9310 -84034,27930 -20948,18620 -38813,44465 -53292,77565l0 488785 -240493 0 0 -804546 142736 0c11910,0 22006,1058 30017,3114 8010,2055 14751,5169 20162,9582 5441,4383 9582,10338 12423,17563 2842,7254 5169,16051 7225,26388l12423 67499z"/>
  <path id="2" class="fil0" d="M1697114 838672c-48093,2056 -87661,6197 -118705,12424 -31014,6197 -55589,13965 -73695,23276 -18107,9310 -30500,19890 -37483,31799 -6983,11880 -10610,24817 -10610,38783 0,27416 7496,46551 22490,57674 14993,11124 36998,16807 65957,16807 31014,0 58188,-5441 81464,-16293 23275,-10851 46793,-28444 70582,-52747l0 -111723zm-432893 -365424c48606,-42924 102653,-74996 161870,-95944 59216,-20948 122574,-31285 190345,-31285 48606,0 92588,7768 131642,23547 39024,15749 72154,37755 99299,65927 27144,28203 47850,61816 62330,100598 14479,38813 21703,81223 21703,127230l0 502750 -110150 0c-22762,0 -39840,-3114 -51478,-9311 -11638,-6196 -21462,-19134 -29200,-38782l-17079 -44223c-20162,17048 -39568,32071 -58189,44979 -18620,12937 -37754,23789 -57675,32857 -19920,9039 -41109,15779 -63629,20162 -22490,4414 -47579,6741 -74996,6741 -36696,0 -70068,-4927 -100054,-14479 -30016,-9582 -55347,-23547 -76295,-42168 -20948,-18620 -37241,-41896 -48637,-69554 -11365,-27689 -17048,-59489 -17048,-95702 0,-28958 7224,-58430 21703,-88174 14480,-29745 39569,-56889 75268,-81464 35699,-24576 83792,-45010 144308,-61544 60516,-16565 136811,-25875 228855,-27931l0 -34157c0,-47065 -9552,-81193 -28958,-102140 -19407,-20948 -47065,-31286 -82764,-31286 -28445,0 -51720,3113 -69827,9310 -18076,6197 -34127,13179 -48334,20948 -14237,7768 -28203,14751 -41654,20948 -13451,6196 -29472,9310 -48093,9310 -16564,0 -30530,-4141 -41895,-12424 -11396,-8282 -20707,-18106 -27931,-29472l-43437 -75267z"/>
  <path id="3" class="fil0" d="M2038296 1166071l0 -804546 148963 0c29986,0 49634,13452 58944,40355l13210 43437c13451,-13965 27417,-26872 41896,-38510 14479,-11638 30258,-21734 47065,-30258 16806,-8555 34913,-15265 54289,-20193 19406,-4896 40626,-7224 63902,-7224 48606,0 88960,12393 120760,37483 31800,25089 55861,58702 72396,100598 13451,-24817 30016,-46037 49392,-63600 19406,-17592 40354,-31829 62844,-42681 22520,-10852 46309,-18893 71398,-24062 25089,-5169 49906,-7738 74723,-7738 46037,0 86906,6711 122574,20434 35700,13693 65686,33613 89747,59730 24061,26117 42168,58189 54561,96185 12424,38027 18621,81223 18621,129315l0 511275 -240493 0 0 -511275c0,-83278 -35699,-124901 -107067,-124901 -32586,0 -59489,10610 -80951,32071 -21461,21462 -32313,52476 -32313,92830l0 511275 -240523 0 0 -511275c0,-46037 -9039,-78350 -27145,-96971 -18107,-18620 -44737,-27930 -79923,-27930 -21703,0 -42137,4897 -61544,14751 -19406,9824 -37754,23003 -54833,39568l0 581857 -240493 0z"/>
  <path id="4" class="fil0" d="M3812431 667220c0,-19134 -2298,-37755 -7225,-55861 -4927,-18107 -12937,-34399 -24061,-48637 -11124,-14207 -25845,-25603 -43952,-34369 -18106,-8796 -40082,-13210 -65957,-13210 -45493,0 -81192,12938 -107067,39055 -25845,26117 -42924,63871 -51206,113022l299468 0zm-302551 139653c7738,67227 28172,115833 61272,146091 33099,30258 75781,45523 128015,45523 27930,0 51992,-3355 72154,-10096 20192,-6710 38268,-14207 54047,-22489 15779,-8283 30258,-15779 43468,-22490 13179,-6741 26872,-10096 41352,-10096 19164,0 33643,6983 43467,20948l69827 86119c-24848,28445 -51478,51478 -80195,69313 -28686,17834 -58158,31799 -88416,41895 -30259,10097 -60517,17079 -90775,20948 -30258,3870 -59246,5955 -86633,5955 -56375,0 -109153,-9310 -158545,-27688 -49392,-18349 -92588,-45524 -129557,-81706 -36968,-36213 -66199,-81223 -87661,-134998 -21461,-53806 -32343,-116377 -32343,-187745 0,-53806 9310,-104740 27688,-152863 18349,-48092 44738,-90230 79137,-126443 34399,-36213 76023,-64899 124902,-86119 48878,-21220 103953,-31800 165497,-31800 53292,0 102170,8252 146394,24817 44223,16565 82220,40596 114050,72154 31799,31558 56616,70068 74451,115863 17864,45765 26661,97757 26661,155674 0,18107 -786,32858 -2328,44223 -1572,11366 -4413,20434 -8554,27145 -4141,6741 -9552,11396 -16535,13965 -6983,2600 -16051,3900 -26903,3900l-463937 0z"/>
  <path id="5" class="fil0" d="M4612925 537663c-6227,9824 -12665,16807 -19648,20948 -6982,4111 -16051,6197 -26903,6197 -11396,0 -22761,-2600 -34127,-7497 -11396,-4927 -23547,-10096 -36727,-15779 -13209,-5682 -28202,-11123 -44737,-16051 -16565,-4896 -35427,-7224 -56647,-7224 -30530,0 -53775,5683 -70068,17321 -16293,11637 -24576,27930 -24576,48636 0,14993 5411,27387 16021,37211 10610,9854 24575,18378 42168,25875 17563,7496 37483,14751 59730,21462 22248,6740 45010,14237 68285,22489 23276,8283 46007,17865 68255,28989 22247,11093 42168,24817 59730,41110 17593,16292 31830,36213 42440,59488 10580,23275 15749,51206 15749,83792 0,39810 -7225,76537 -21704,110150 -14479,33613 -35941,62602 -64657,86905 -28717,24303 -64144,43166 -106282,56617 -42167,13451 -90774,20192 -145607,20192 -27417,0 -54834,-2599 -82250,-7768 -27387,-5169 -53776,-12152 -79379,-20948 -25603,-8797 -49392,-19407 -71126,-31558 -21704,-12152 -40324,-25089 -55861,-39055l55861 -88446c6227,-10338 14237,-18590 23789,-24545 9583,-5955 21734,-8797 36727,-8797 13966,0 26631,3114 37755,9311 11124,6196 23034,12937 35941,20162 12937,7254 28202,13965 45523,20162 17321,6226 39054,9310 65443,9310 18621,0 34400,-2056 47307,-5925 12938,-3899 23275,-9068 31044,-15779 7769,-6741 13451,-14237 17079,-22489 3597,-8283 5411,-16837 5411,-25603 0,-16051 -5411,-29231 -16293,-39569 -10852,-10368 -25089,-19406 -42652,-26903 -17592,-7496 -37513,-14479 -60002,-20947 -22490,-6469 -45523,-13724 -68799,-21976 -23275,-8283 -46037,-18379 -68526,-30016 -22490,-11638 -42682,-26359 -60245,-44224 -17592,-17834 -31829,-39568 -42681,-65413 -10852,-25875 -16293,-57161 -16293,-93888 0,-34127 6710,-66713 19920,-97485 13179,-30772 32828,-57674 59216,-80950 26389,-23275 59489,-41896 99299,-55589 39840,-13723 86391,-20434 139653,-20434 28958,0 57161,2569 84305,7738 27145,5169 52506,12424 76296,21734 23789,9310 45523,20162 65171,32858 19648,12665 36969,26631 51962,41624l-54290 84577z"/>
  <path id="6" class="fil0" d="M4992104 361525l0 804546 -240493 0 0 -804546 240493 0zm24817 -220331c0,19135 -3869,36999 -11638,53806 -7738,16807 -18348,31528 -31800,44223 -13451,12666 -28958,22762 -46792,30259 -17865,7496 -36999,11365 -57161,11365 -19648,0 -38027,-3869 -55075,-11365 -17079,-7497 -32072,-17593 -45282,-30259 -13179,-12695 -23517,-27416 -31014,-44223 -7496,-16807 -11396,-34671 -11396,-53806 0,-19648 3900,-37996 11396,-55075 7497,-17079 17835,-32072 31014,-45009 13210,-12907 28203,-23004 45282,-30258 17048,-7225 35427,-10852 55075,-10852 20162,0 39296,3627 57161,10852 17834,7254 33341,17351 46792,30258 13452,12937 24062,27930 31800,45009 7769,17079 11638,35427 11638,55075z"/>
  <path id="7" class="fil0" d="M5528800 838672c-48093,2056 -87661,6197 -118705,12424 -31014,6197 -55589,13965 -73696,23276 -18106,9310 -30500,19890 -37482,31799 -6983,11880 -10610,24817 -10610,38783 0,27416 7496,46551 22489,57674 14993,11124 36999,16807 65958,16807 31013,0 58188,-5441 81464,-16293 23275,-10851 46792,-28444 70582,-52747l0 -111723zm-432894 -365424c48607,-42924 102654,-74996 161871,-95944 59216,-20948 122574,-31285 190345,-31285 48606,0 92588,7768 131642,23547 39024,15749 72154,37755 99299,65927 27144,28203 47850,61816 62329,100598 14480,38813 21704,81223 21704,127230l0 502750 -110150 0c-22762,0 -39841,-3114 -51478,-9311 -11638,-6196 -21462,-19134 -29201,-38782l-17078 -44223c-20162,17048 -39569,32071 -58189,44979 -18620,12937 -37755,23789 -57675,32857 -19920,9039 -41110,15779 -63629,20162 -22490,4414 -47579,6741 -74996,6741 -36696,0 -70068,-4927 -100054,-14479 -30016,-9582 -55347,-23547 -76295,-42168 -20948,-18620 -37241,-41896 -48637,-69554 -11366,-27689 -17048,-59489 -17048,-95702 0,-28958 7224,-58430 21703,-88174 14479,-29745 39569,-56889 75268,-81464 35699,-24576 83791,-45010 144308,-61544 60516,-16565 136811,-25875 228855,-27931l0 -34157c0,-47065 -9552,-81193 -28959,-102140 -19406,-20948 -47064,-31286 -82763,-31286 -28445,0 -51720,3113 -69827,9310 -18076,6197 -34127,13179 -48334,20948 -14238,7768 -28203,14751 -41654,20948 -13452,6196 -29472,9310 -48093,9310 -16565,0 -30530,-4141 -41896,-12424 -11396,-8282 -20706,-18106 -27930,-29472l-43438 -75267z"/>
 </g>
</svg>
