<?xml version="1.0" encoding="UTF-8"?>
<!DOCTYPE svg PUBLIC "-//W3C//DTD SVG 1.1//EN" "http://www.w3.org/Graphics/SVG/1.1/DTD/svg11.dtd">
<!-- Creator: CorelDRAW X7 -->
<svg xmlns="http://www.w3.org/2000/svg" xml:space="preserve" width="102px" height="20px" version="1.1" style="shape-rendering:geometricPrecision; text-rendering:geometricPrecision; image-rendering:optimizeQuality; fill-rule:evenodd; clip-rule:evenodd"
viewBox="0 0 130636 25336"
 xmlns:xlink="http://www.w3.org/1999/xlink">
 <defs>
  <style type="text/css">
   <![CDATA[
    .fil0 {fill:#F2635E;fill-rule:nonzero}
   ]]>
  </style>
 </defs>
 <g id="Layer_x0020_1">
  <metadata id="CorelCorpID_0Corel-Layer"/>
  <path class="fil0" d="M6118 25013l-6118 0 0 -23014 13597 0 0 4996 -7479 0 0 4384 6894 0 0 4996 -6894 0 0 8638zm19272 -18147c537,0 1047,43 1526,123l348 65 -553 5808c-500,-124 -1198,-188 -2090,-188 -1342,0 -2315,306 -2922,918 -612,618 -913,1500 -913,2654l0 8767 -6156 0 0 -17824 4582 0 962 2842 295 0c515,-945 1230,-1709 2149,-2289 918,-586 1842,-876 2772,-876zm12968 18147l-1177 -2358 -128 0c-827,1031 -1671,1736 -2530,2111 -865,382 -1977,570 -3342,570 -1676,0 -2997,-506 -3964,-1510 -962,-1011 -1445,-2428 -1445,-4255 0,-1897 661,-3315 1981,-4243 1323,-930 3235,-1451 5743,-1563l2976 -97 0 -253c0,-1467 -725,-2197 -2170,-2197 -1304,0 -2954,440 -4958,1321l-1778 -4067c2073,-1068 4700,-1606 7864,-1606 2289,0 4061,564 5314,1698 1257,1134 1880,2718 1880,4754l0 11695 -4266 0zm-4561 -4029c741,0 1382,-236 1914,-709 525,-473 793,-1084 793,-1837l0 -1386 -1418 65c-2025,69 -3035,816 -3035,2228 0,1091 580,1639 1746,1639zm32530 4029l0 -9691c0,-1209 -167,-2112 -498,-2718 -329,-603 -850,-902 -1564,-902 -946,0 -1639,402 -2079,1213 -441,806 -661,2069 -661,3788l0 8310 -6168 0 0 -9691c0,-1209 -161,-2112 -473,-2718 -316,-603 -821,-902 -1525,-902 -966,0 -1671,428 -2112,1289 -439,858 -660,2267 -660,4217l0 7805 -6151 0 0 -17824 4642 0 768 2196 365 0c473,-821 1155,-1445 2053,-1873 897,-430 1918,-646 3061,-646 2568,0 4373,779 5415,2342l490 0c500,-730 1202,-1305 2099,-1719 898,-414 1886,-623 2966,-623 2106,0 3664,543 4675,1623 1004,1080 1508,2723 1508,4926l0 11598 -6151 0zm16570 323c-2971,0 -5276,-791 -6920,-2369 -1639,-1580 -2460,-3831 -2460,-6748 0,-3013 758,-5323 2283,-6935 1521,-1612 3690,-2418 6511,-2418 2687,0 4761,699 6227,2101 1460,1402 2192,3422 2192,6055l0 2739 -10997 0c42,993 409,1778 1096,2341 682,565 1623,850 2804,850 1080,0 2074,-103 2981,-306 907,-204 1891,-554 2949,-1048l0 4432c-962,489 -1960,833 -2987,1021 -1025,188 -2255,285 -3679,285zm-365 -14280c-720,0 -1327,232 -1816,688 -490,457 -774,1171 -855,2149l5281 0c-21,-860 -262,-1548 -730,-2063 -468,-516 -1091,-774 -1880,-774zm23068 8478c0,1912 -651,3357 -1951,4336 -1300,977 -3169,1466 -5603,1466 -1321,0 -2469,-70 -3441,-215 -979,-140 -1973,-399 -2994,-779l0 -4932c958,420 2004,764 3139,1036 1138,274 2152,409 3043,409 1333,0 2000,-306 2000,-913 0,-312 -188,-597 -559,-838 -376,-247 -1456,-730 -3250,-1440 -1632,-671 -2776,-1435 -3426,-2288 -650,-854 -978,-1940 -978,-3250 0,-1661 645,-2950 1923,-3874 1279,-924 3089,-1386 5425,-1386 1175,0 2278,129 3314,387 1031,259 2101,634 3213,1122l-1666 3970c-817,-365 -1682,-677 -2595,-934 -912,-258 -1654,-387 -2235,-387 -1004,0 -1508,247 -1508,741 0,302 177,565 525,780 355,214 1370,650 3047,1311 1246,515 2175,1014 2788,1508 617,496 1068,1076 1353,1742 291,661 436,1471 436,2428zm7226 5479l-6156 0 0 -17824 6156 0 0 17824zm-6312 -22273c0,-924 259,-1612 768,-2063 516,-451 1349,-677 2487,-677 1145,0 1983,232 2504,694 527,462 789,1143 789,2046 0,1806 -1095,2709 -3293,2709 -2169,0 -3255,-903 -3255,-2709zm19857 22273l-1177 -2358 -129 0c-827,1031 -1671,1736 -2530,2111 -865,382 -1977,570 -3341,570 -1677,0 -2998,-506 -3964,-1510 -962,-1011 -1446,-2428 -1446,-4255 0,-1897 661,-3315 1982,-4243 1322,-930 3234,-1451 5742,-1563l2977 -97 0 -253c0,-1467 -726,-2197 -2171,-2197 -1304,0 -2954,440 -4958,1321l-1778 -4067c2074,-1068 4700,-1606 7865,-1606 2288,0 4061,564 5313,1698 1258,1134 1880,2718 1880,4754l0 11695 -4265 0zm-4561 -4029c740,0 1381,-236 1913,-709 525,-473 794,-1084 794,-1837l0 -1386 -1418 65c-2026,69 -3036,816 -3036,2228 0,1091 580,1639 1747,1639z"/>
 </g>
</svg>
