<?xml version="1.0" encoding="UTF-8"?>
<!DOCTYPE svg PUBLIC "-//W3C//DTD SVG 1.1//EN" "http://www.w3.org/Graphics/SVG/1.1/DTD/svg11.dtd">
<!-- Creator: CorelDRAW X7 -->
<svg xmlns="http://www.w3.org/2000/svg" xml:space="preserve" width="225px" height="47px" version="1.1" style="shape-rendering:geometricPrecision; text-rendering:geometricPrecision; image-rendering:optimizeQuality; fill-rule:evenodd; clip-rule:evenodd"
viewBox="0 0 5985022 1243996"
 xmlns:xlink="http://www.w3.org/1999/xlink">
 <defs>
  <style type="text/css">
   <![CDATA[
    .fil0 {fill:#777;fill-rule:nonzero}
   ]]>
  </style>
 </defs>
 <g id="Layer_x0020_1">
  <path class="fil0" d="M408990 778988c28859,-5098 76379,-11895 125599,-11895 74679,0 195180,5098 195180,5098l39023 -144261 -10196 -13564c0,0 -123868,13564 -173088,13564l-152758 -1699 47521 -298403c8497,-51203 16994,-56301 93341,-56301 125599,0 161223,11896 161223,78362 0,39306 -13563,100705 -13563,100705l151058 -10196c27127,-156975 71281,-309733 71281,-309733l-10197 -15263c-95041,11896 -257963,18662 -463308,18662 -122200,0 -302085,-5098 -302085,-5098l-25460 100139 8466 15295c0,0 32257,-3399 50919,-3399 42422,0 49220,18662 40723,91925l-81446 649708c-11896,96740 -40723,128997 -135763,147659l-25460 112004c0,0 142561,-18662 268128,-18662 81477,0 254565,6797 254565,6797l32257 -127298 -11864 -16962c0,0 -64515,8465 -106937,8465 -55986,0 -67882,-28827 -57685,-108604l30526 -207045z"/>
  <path id="1" class="fil0" d="M906884 1210071l22061 27128c76348,0 171388,-33926 176487,-62784l18662 -156125c84876,-224038 185015,-349605 274957,-349605 42422,0 67882,20361 67882,20361l23760 -10197c11865,-37324 16963,-64483 16963,-89942 0,-72980 -23760,-127298 -74680,-166322 -66182,0 -186683,154426 -259663,332643l-8465 0c23760,-137463 69581,-288521 69581,-288521l-18662 -27159c0,0 -198579,15295 -324177,15295l-16963 100107 59385 0c47520,0 64514,18694 64514,66214 0,62784 -91642,588907 -91642,588907l0 0z"/>
  <path id="2" class="fil0" d="M2086996 1038651c40754,-268160 122199,-571944 122199,-571944l-13563 -28858 -137463 -23761 -18694 11896 -11864 37324 -147660 -30526c-198547,0 -409021,290189 -409021,563447 0,156125 71280,247767 193480,247767 89943,-62783 171420,-166321 273258,-349605l13564 1699c-16963,67882 -57685,251166 -57685,283423 0,42422 23760,64483 72948,64483 64515,0 135795,-52618 295319,-220639l-27159 -59385 -28858 -3399c-81446,71281 -98440,84876 -112004,84876l-6797 -6798zm-368268 6798c-20361,0 -37324,-61116 -37324,-144261 0,-164622 74648,-334342 145929,-334342 42453,0 98439,18662 149359,49220 -84845,225706 -207045,429383 -257964,429383z"/>
  <path id="3" class="fil0" d="M3329953 1036952c23760,-108605 125567,-353004 125567,-448045 0,-101839 -72980,-169720 -186682,-169720 -86544,52618 -186683,190081 -278325,381862l-8497 -1699c0,0 47520,-161223 47520,-212143 0,-98439 -76347,-168020 -186683,-168020 -84844,50919 -178186,184983 -271527,381862l-8497 -1699c25460,-162923 79778,-332643 79778,-332643l-18662 -27159c0,0 -198579,15295 -324178,15295l-16962 100107 59385 0c49219,0 67913,18694 64514,69581 -8497,76379 -91642,585540 -91642,585540l22061 27128c76347,0 171388,-33926 176486,-62784l15295 -122200c95041,-246067 196848,-415788 251166,-415788 28858,0 44121,20362 44121,54318 0,64483 -110304,519326 -110304,519326l22061 27128c76379,0 171388,-33926 174787,-62784l15295 -96740c105205,-257964 220608,-441248 278325,-441248 27159,0 44121,22061 44121,59385 0,89974 -122200,385262 -122200,471805 0,50920 27159,74680 81477,74680 62784,0 142562,-59385 296987,-220608l-27159 -59416 -30526 -5099c-86575,74680 -100139,84876 -112035,84876l-5067 -5098z"/>
  <path id="4" class="fil0" d="M4148563 580410c0,-100108 -67882,-159524 -181585,-159524 -224038,0 -431082,252865 -431082,526123 0,181585 91642,296987 235903,296987 127298,0 266460,-96740 327544,-227405l-55986 -67882 -28858 -3399c-47521,84844 -108605,134064 -171420,134064 -67882,0 -106905,-64483 -106905,-166321 296987,-93342 412389,-181585 412389,-332643zm-240969 -10165c35624,0 55986,20361 55986,59385 0,72980 -67882,128997 -222308,179916 22061,-140861 91642,-239301 166322,-239301z"/>
  <path id="5" class="fil0" d="M4206909 955475c-30558,40754 -69612,128997 -81477,186683 20362,61115 115402,101838 234203,101838 186683,0 339441,-125599 339441,-278325 0,-134064 -137495,-191781 -215541,-254564 -30558,-23761 -50920,-47521 -50920,-78079 0,-40722 35625,-71280 78079,-71280 54286,0 101807,39023 125567,100139l33956 0c23761,-42422 56018,-106937 81446,-173119 -45821,-42422 -127267,-69581 -213810,-69581 -178218,0 -320779,120500 -320779,273258 0,108604 86544,166290 161223,217209 57717,39055 108636,72980 108636,120500 0,44122 -39054,76379 -95040,76379 -88275,0 -147660,-57717 -151059,-149359l-33925 -1699z"/>
  <path id="6" class="fil0" d="M5020421 256264c86544,0 147659,-66182 147659,-156125 0,-61116 -33956,-100139 -96740,-100139 -89943,0 -151058,64483 -151058,152726 0,59416 33956,103538 100139,103538zm-18662 782387c40723,-286822 120500,-571944 120500,-571944l-20361 -27159c0,0 -198579,15295 -324177,15295l-16963 100107 59416 0c45821,0 64483,18694 64483,64515 0,54286 -81477,539687 -81477,539687 0,55986 23760,84844 79778,84844 64483,0 147659,-61084 295287,-220639l-28827 -59385 -28858 -3399c-84876,74680 -98440,84876 -112004,84876l-6797 -6798z"/>
  <path id="7" class="fil0" d="M5810204 1038651c40754,-268160 122200,-571944 122200,-571944l-13564 -28858 -137463 -23761 -18694 11896 -11864 37324 -147660 -30526c-198547,0 -409021,290189 -409021,563447 0,156125 71280,247767 193480,247767 89943,-62783 171420,-166321 273258,-349605l13564 1699c-16962,67882 -57685,251166 -57685,283423 0,42422 23760,64483 72948,64483 64515,0 135795,-52618 295319,-220639l-27159 -59385 -28858 -3399c-81446,71281 -98440,84876 -112004,84876l-6797 -6798zm-368268 6798c-20361,0 -37324,-61116 -37324,-144261 0,-164622 74648,-334342 145929,-334342 42454,0 98439,18662 149359,49220 -84845,225706 -207044,429383 -257964,429383z"/>
 </g>
</svg>
