<?xml version="1.0" encoding="UTF-8"?>
<!DOCTYPE svg PUBLIC "-//W3C//DTD SVG 1.1//EN" "http://www.w3.org/Graphics/SVG/1.1/DTD/svg11.dtd">
<!-- Creator: CorelDRAW X7 -->
<svg xmlns="http://www.w3.org/2000/svg" xml:space="preserve" width="206px" height="45px" version="1.1" style="shape-rendering:geometricPrecision; text-rendering:geometricPrecision; image-rendering:optimizeQuality; fill-rule:evenodd; clip-rule:evenodd"
viewBox="0 0 5035168 1113445"
 xmlns:xlink="http://www.w3.org/1999/xlink">
 <defs>
  <style type="text/css">
   <![CDATA[
    .fil0 {fill:#777777;fill-rule:nonzero}
   ]]>
  </style>
 </defs>
 <g id="Layer_x0020_1">
  <path class="fil0" d="M286950 658079c26488,-4685 71715,-10902 116943,-10902 70183,0 185593,4655 185593,4655l29612 -88863 -3123 -6247c0,0 -112259,17149 -159047,17149l-154392 -1562 51474 -338134c9340,-59541 15586,-61074 113820,-61074 155952,0 193372,6217 193372,76661 0,42364 -14025,108123 -14025,108123l67060 -6247c26517,-144241 67060,-261213 67060,-261213l-3123 -6217c-96701,12464 -216767,17148 -422632,17148 -88864,0 -204274,-4684 -204274,-4684l-17148 65498 1562 4685c0,1561 34296,-1562 51444,-1562 45227,0 53035,17148 45227,84208l-82646 662764c-10902,87331 -37420,115410 -134120,134120l-15587 67060c0,0 95139,-18710 168416,-18710 79524,0 221452,6246 221452,6246l20271 -67060 -1562 -6246c0,0 -76400,4685 -107602,4685 -51474,0 -63937,-32764 -53035,-106041l39010 -268240z"/>
  <path id="1" class="fil0" d="M779677 1094735l10931 14025c24956,0 95110,-26488 96672,-35858l23394 -176224c85770,-219890 198057,-360227 286950,-360227 26517,0 43666,7779 43666,7779l12492 -4656c4656,-20271 7779,-37448 7779,-54596 0,-43666 -14025,-81085 -45227,-107603 -68622,0 -196496,160638 -282265,355571l-6218 -1561c29612,-154391 84208,-322808 84208,-322808l-14053 -18709c0,0 -157486,9340 -252625,9340l-10931 59252 63966 0c49883,0 67031,18739 67031,68622 0,62375 -85770,567653 -85770,567653z"/>
  <path id="2" class="fil0" d="M1696598 994940c40542,-290073 129435,-591047 129435,-591047l-12463 -18710 -48351 -23394 -7807 1561 -14025 38981 -155953 -24956c-174663,0 -357104,268240 -357104,523988 0,134120 45227,212082 124751,212082 99794,-70183 190249,-185565 291605,-372720l9369 3123c0,0 -67060,286950 -67060,324370 0,29640 18710,45227 56158,45227 32735,0 91987,-45227 218300,-165293l-20272 -37449 -18709 -1532c-93549,81085 -107603,91987 -123190,91987l-4684 -6218zm-311877 -7808c-24956,0 -45227,-71744 -45227,-162199 0,-185564 98233,-363350 199589,-363350 42105,0 106070,20272 157515,51474 -113849,260432 -254186,474075 -311877,474075z"/>
  <path id="3" class="fil0" d="M2772594 994940c31173,-132558 138776,-368035 138776,-478760 0,-82647 -49883,-145051 -115381,-145051 -101386,59281 -219890,210549 -322808,413262l-4685 -4656c0,0 63937,-210549 63937,-263555 0,-79553 -54596,-145051 -120066,-145051 -95139,56158 -204303,201180 -310344,413262l-4685 -4656c29641,-182470 95139,-371158 95139,-371158l-14053 -18709c0,0 -157486,9340 -252625,9340l-10931 59252 63966 0c48321,0 67031,18739 67031,62376 0,49911 -85770,573899 -85770,573899l10931 14025c24956,0 95110,-26488 96672,-35858l17177 -132558c104479,-252625 218328,-424164 280703,-424164 31174,0 53006,26488 53006,63937 0,57690 -104479,514618 -104479,514618l10931 14025c24927,0 95110,-26488 96672,-35858l18709 -101356c113849,-269802 238600,-455366 305660,-455366 31202,0 53035,26488 53035,63937 0,106041 -127874,394552 -127874,488101 0,29640 17148,45227 48321,45227 32764,0 102947,-51445 221452,-165293l-20272 -37449 -18709 -1532c-96701,82646 -109165,91987 -124751,91987l-4685 -6218z"/>
  <path id="4" class="fil0" d="M3499266 492785c0,-77990 -45228,-121656 -123219,-121656 -174662,0 -353980,244846 -353980,485007 0,159076 68592,257309 180880,257309 88892,0 191810,-77962 251091,-188688l-23394 -37419 -21833 -1562c-42104,81085 -109164,134091 -171539,134091 -73306,0 -116972,-88864 -109164,-221422 266649,-88893 371158,-174663 371158,-305660zm-173101 -31202c40542,0 62375,24956 62375,71745 0,85770 -73306,143460 -254215,199618 23394,-148145 110726,-271363 191840,-271363z"/>
  <path id="5" class="fil0" d="M3556898 879530c-17148,29641 -43665,99795 -56158,146583 17177,54597 87332,87332 182471,87332 134120,0 257309,-112287 257309,-232353 0,-112288 -126312,-182471 -196496,-257310 -28050,-29640 -46788,-59281 -46788,-93577 0,-48350 39010,-84208 88893,-84208 62375,0 112287,40542 135681,109164l21833 0c14025,-29641 40542,-84208 53035,-121628 -29641,-39010 -90455,-62404 -160638,-62404 -129435,0 -243284,101385 -243284,218328 0,88893 77991,151268 146584,210549 53035,45228 98262,88893 98262,141899 0,54597 -49912,99795 -109164,99795 -96701,0 -149707,-56129 -149707,-162170l-21833 0z"/>
  <path id="6" class="fil0" d="M4257052 171539c56158,0 98262,-48350 98262,-102946 0,-35858 -21832,-68593 -63937,-68593 -57719,0 -99823,49883 -99823,102918 0,34296 21833,68621 65498,68621zm-74839 823401c40543,-290073 129436,-586363 129436,-586363l-14054 -18709c0,0 -157486,9340 -252625,9340l-10931 59252 63966 0c46760,0 65499,18739 65499,65499 0,54596 -79553,534918 -79553,534918 0,35858 12493,54568 46789,54568 35858,0 110726,-57691 218328,-165293l-20271 -37449 -18710 -1532c-88893,77961 -107602,91987 -123218,91987l-4656 -6218z"/>
  <path id="7" class="fil0" d="M4868313 994940c40543,-290073 129436,-591047 129436,-591047l-12464 -18710 -48350 -23394 -7808 1561 -14025 38981 -155953 -24956c-174662,0 -357104,268240 -357104,523988 0,134120 45227,212082 124751,212082 99795,-70183 190249,-185565 291605,-372720l9370 3123c0,0 -67060,286950 -67060,324370 0,29640 18709,45227 56158,45227 32735,0 91987,-45227 218299,-165293l-20271 -37449 -18710 -1532c-93548,81085 -107602,91987 -123189,91987l-4685 -6218zm-311876 -7808c-24956,0 -45228,-71744 -45228,-162199 0,-185564 98234,-363350 199590,-363350 42104,0 106070,20272 157514,51474 -113848,260432 -254186,474075 -311876,474075z"/>
 </g>
</svg>
