<svg width="600" height="600" viewBox="0 0 600 600" version="1.1" xmlns="http://www.w3.org/2000/svg" xmlns:xlink="http://www.w3.org/1999/xlink" xmlns:figma="http://www.figma.com/figma/ns">
<title>Frame2</title>
<desc>Created using Figma</desc>
<g id="Canvas" transform="translate(-332 287)" figma:type="canvas">
<mask id="mask0_alpha" mask-type="alpha">
<path d="M 332 -287L 932 -287L 932 313L 332 313L 332 -287Z" fill="#FFFFFF"/>
</mask>
<g id="Frame2" mask="url(#mask0_alpha)" figma:type="frame">
<g id="Subtract" figma:type="vector-operation">
<use xlink:href="#path0_fill" transform="translate(345 157)" fill="url(#paint0_linear)"/>
</g>
<g id="Subtract" figma:type="vector-operation">
<use xlink:href="#path1_fill" transform="translate(345 -59)" fill="url(#paint1_linear)"/>
</g>
<g id="Subtract" figma:type="vector-operation">
<use xlink:href="#path1_fill" transform="translate(345 -275)" fill="url(#paint2_linear)"/>
</g>
</g>
</g>
<defs>
<linearGradient id="paint0_linear" x1="0" y1="0" x2="1" y2="0" gradientUnits="userSpaceOnUse" gradientTransform="matrix(551.564 -6.64575e-06 -7.85403e-06 1372 3.92701e-06 -613.999)">
<stop offset="0" stop-color="#2F80ED"/>
<stop offset="1" stop-color="#56CCF2"/>
</linearGradient>
<linearGradient id="paint1_linear" x1="0" y1="0" x2="1" y2="0" gradientUnits="userSpaceOnUse" gradientTransform="matrix(574.279 1.27953e-05 -4.0561e-05 1822.24 2.34877e-05 -839.12)">
<stop offset="0" stop-color="#141E30"/>
<stop offset="1" stop-color="#243B55"/>
</linearGradient>
<linearGradient id="paint2_linear" x1="0" y1="0" x2="1" y2="0" gradientUnits="userSpaceOnUse" gradientTransform="matrix(574.279 1.27953e-05 -4.0561e-05 1822.24 2.34877e-05 -839.12)">
<stop offset="0" stop-color="#141E30"/>
<stop offset="1" stop-color="#243B55"/>
</linearGradient>
<path id="path0_fill" fill-rule="evenodd" d="M 356.25 0C 357.736 0 358.703 1.56367 358.039 2.8934L 288.14 142.893C 287.801 143.572 287.108 144 286.35 144L 2 144C 0.895431 144 0 143.105 0 142L 0 2C 0 0.895431 0.895431 0 2 0L 356.25 0Z"/>
<path id="path1_fill" fill-rule="evenodd" d="M 503.83 142.893C 503.491 143.572 502.799 144 502.041 144L 2 144C 0.895431 144 0 143.105 0 142L 0 2C 0 0.895431 0.895431 0 2 0L 571.94 0C 573.427 0 574.394 1.56367 573.73 2.8934L 503.83 142.893Z"/>
</defs>
</svg>
